<?xml version="1.0" encoding="UTF-8"?>
<svg id="Layer_2" data-name="Layer 2" xmlns="http://www.w3.org/2000/svg" viewBox="0 0 1032.81 885.75">
  <polygon points="517.25 0 0 885.75 1032.81 885.75 517.25 0" fill="#008243" stroke-width="0"/>
  <polygon points="516.41 31.27 24.51 869.69 1009.99 869.69 516.41 31.27" fill="#fff" opacity=".37" stroke-width="0"/>
  <g>
    <polygon points="517.25 30.43 25.36 868.85 1010.84 868.85 517.25 30.43" fill="#fff" stroke-width="0"/>
    <path d="M539.23,481.75l-52.4-8.45v-116.64l-107.34.85s-23.67-35.5,1.69-71h263.7s39.72,39.72.85,68.46h-104.8l-1.69,126.78Z" fill="#008243" stroke-width="0"/>
  </g>
  <path d="M490.21,539.23l52.4,9.3v49.02s-18.59,49.02-52.4,0v-58.32Z" fill="#008243" stroke-width="0"/>
  <path d="M542.61,367.65l-.85,70.15h108.18s33.81-30.43,0-71l-107.34.85Z" fill="#cc541f" stroke-width="0"/>
  <path d="M485.13,368.5v71h-64.23l-.85,19.44s6.76,6.76,10.14,6.76l221.44,38.88s15.21,5.07,15.21,28.74v109.87s1.69,15.21-27.05,13.52h-251.86s-38.88-35.5,1.69-71l97.2.85v11.83s32.12,55.78,59.16,0v-13.52l75.22.85v-21.97l-231.58-40.57s-11.83-3.38-18.59-16.9v-111.56s-3.38-25.36,23.67-25.36l90.43-.85Z" fill="#cc541f" stroke-width="0"/>
  <path d="M324.55,674.46l-.85-65.08s-6.76-33.81-35.5-33.81c0,0-30.43,1.69-32.12,38.88l-1.69,196.08s3.38,40.57,37.19,45.64c0,0,30.43-1.69,32.12-45.64v-74.38l224.82-1.69h167.35v81.14s5.07,40.57,35.5,40.57c0,0,28.74,0,32.12-40.57v-197.77s-3.38-40.57-33.81-42.26c0,0-32.12-1.69-33.81,40.57l-1.69,60.85-389.63-2.54Z" fill="#008243" stroke-width="0"/>
</svg>